# xmcd
#
# Track frame offsets:
#	150
#	11757
#	27257
#	40485
#	52824
#	67602
#	79838
#	94136
#	108910
#	121396
#	132478
#	145522
#
# Disc length: 2099 seconds
#
# Revision: 0
# Processed by: cddbd v1.5PL3 Copyright (c) Steve Scherf et al.
# Submitted via: dBpowerAMP V4.0
#
DISCID=9608310c
DTITLE=Laberinto - Coleccion de Oro disco 1
DYEAR=1900
DGENRE=Banda
TTITLE0=Pescadores de Ensenada
TTITLE1=Clave 7
TTITLE2=Corrido de los Pérez
TTITLE3=Carga Ladeada
TTITLE4=Regalo Caro
TTITLE5=Nave 727
TTITLE6=El Compa
TTITLE7=El Amo
TTITLE8=Era Cabron el viejo
TTITLE9=Se le pelo Baltazar
TTITLE10=Jesus Malverde
TTITLE11=El Rayo de Sinaloa
EXTD=
EXTT0=
EXTT1=
EXTT2=
EXTT3=
EXTT4=
EXTT5=
EXTT6=
EXTT7=
EXTT8=
EXTT9=
EXTT10=
EXTT11=
PLAYORDER=
